Coda-Heavy-IN.ufo
<glyph name="plus" format="1">
  <advance width="1328"/>
  <unicode hex="002B"/>
  <outline>
    <contour>
      <point x="469" y="811" type="line"/>
      <point x="469" y="1192" type="line"/>
      <point x="861" y="1192" type="line"/>
      <point x="861" y="811" type="line"/>
      <point x="1225" y="811" type="line"/>
      <point x="1225" y="478" type="line"/>
      <point x="861" y="478" type="line"/>
      <point x="861" y="100" type="line"/>
      <point x="469" y="100" type="line"/>
      <point x="469" y="478" type="line"/>
      <point x="104" y="478" type="line"/>
      <point x="104" y="811" type="line"/>
    </contour>
  </outline>
</glyph>
<glyph name="hyphen" format="1">
  <advance width="1328"/>
  <unicode hex="002D"/>
  <outline>
    <contour>
      <point x="1165" y="811" type="line"/>
      <point x="1165" y="478" type="line"/>
      <point x="164" y="478" type="line"/>
      <point x="164" y="811" type="line"/>
    </contour>
  </outline>
</glyph>
<glyph name="five" format="1">
  <advance width="1429"/>
  <unicode hex="0035"/>
  <outline>
    <contour>
      <point x="955" y="1105" type="curve" smooth="yes"/>
      <point x="1281" y="1105"/>
      <point x="1364" y="881"/>
      <point x="1364" y="553" type="curve" smooth="yes"/>
      <point x="1364" y="87"/>
      <point x="1187" y="-39"/>
      <point x="714" y="-39" type="curve" smooth="yes"/>
      <point x="369" y="-39"/>
      <point x="113" y="30"/>
      <point x="75" y="331" type="curve" smooth="yes"/>
      <point x="69" y="376"/>
      <point x="66" y="424"/>
      <point x="66" y="474" type="curve"/>
      <point x="616" y="474" type="line"/>
      <point x="616" y="236" type="line"/>
      <point x="797" y="236" type="line"/>
      <point x="797" y="838" type="line"/>
      <point x="616" y="838" type="line"/>
      <point x="616" y="655" type="line"/>
      <point x="83" y="655" type="line"/>
      <point x="136" y="1596" type="line"/>
      <point x="1229" y="1596" type="line"/>
      <point x="1229" y="1299" type="line"/>
      <point x="638" y="1299" type="line"/>
      <point x="604" y="998" type="line"/>
      <point x="672" y="1077"/>
      <point x="796" y="1105"/>
    </contour>
  </outline>
</glyph>
<glyph name="six" format="1">
  <advance width="1448"/>
  <unicode hex="0036"/>
  <outline>
    <contour>
      <point x="718" y="-39" type="curve"/>
      <point x="312" y="-39"/>
      <point x="85" y="93"/>
      <point x="85" y="476" type="curve" smooth="yes"/>
      <point x="85" y="1056" type="line" smooth="yes"/>
      <point x="85" y="1496"/>
      <point x="312" y="1632"/>
      <point x="717" y="1632" type="curve" smooth="yes"/>
      <point x="966" y="1632"/>
      <point x="1329" y="1608"/>
      <point x="1329" y="1237" type="curve" smooth="yes"/>
      <point x="1329" y="1208"/>
      <point x="1331" y="1183"/>
      <point x="1331" y="1158" type="curve"/>
      <point x="800" y="1158" type="line"/>
      <point x="800" y="1369" type="line"/>
      <point x="637" y="1369" type="line"/>
      <point x="637" y="1068" type="line"/>
      <point x="761" y="1068" type="line" smooth="yes"/>
      <point x="1223" y="1068"/>
      <point x="1382" y="941"/>
      <point x="1382" y="523" type="curve" smooth="yes"/>
      <point x="1382" y="62"/>
      <point x="1130" y="-36"/>
    </contour>
    <contour>
      <point x="636" y="236" type="line"/>
      <point x="816" y="236" type="line"/>
      <point x="816" y="798" type="line"/>
      <point x="636" y="798" type="line"/>
    </contour>
  </outline>
</glyph>
<glyph name="eight" format="1">
  <advance width="1427"/>
  <unicode hex="0038"/>
  <outline>
    <contour>
      <point x="628" y="235" type="line"/>
      <point x="794" y="235" type="line"/>
      <point x="794" y="720" type="line"/>
      <point x="628" y="720" type="line"/>
    </contour>
    <contour>
      <point x="640" y="1355" type="line"/>
      <point x="640" y="960" type="line"/>
      <point x="794" y="960" type="line"/>
      <point x="794" y="1355" type="line"/>
    </contour>
    <contour>
      <point x="119" y="1181" type="curve" smooth="yes"/>
      <point x="119" y="1529"/>
      <point x="366" y="1631"/>
      <point x="719" y="1631" type="curve" smooth="yes"/>
      <point x="1071" y="1631"/>
      <point x="1310" y="1528"/>
      <point x="1310" y="1180" type="curve" smooth="yes"/>
      <point x="1310" y="1022"/>
      <point x="1265" y="898"/>
      <point x="1149" y="864" type="curve"/>
      <point x="1305" y="830"/>
      <point x="1368" y="671"/>
      <point x="1368" y="470" type="curve" smooth="yes"/>
      <point x="1368" y="34"/>
      <point x="1100" y="-40"/>
      <point x="721" y="-40" type="curve" smooth="yes"/>
      <point x="287" y="-40"/>
      <point x="64" y="75"/>
      <point x="64" y="470" type="curve" smooth="yes"/>
      <point x="64" y="608"/>
      <point x="88" y="818"/>
      <point x="251" y="864" type="curve"/>
      <point x="149" y="900"/>
      <point x="119" y="1035"/>
    </contour>
  </outline>
</glyph>
<glyph name="less" format="1">
  <advance width="1036"/>
  <unicode hex="003C"/>
  <outline>
    <contour>
      <point x="75" y="1098" type="line"/>
      <point x="951" y="1597" type="line"/>
      <point x="951" y="1092" type="line"/>
      <point x="350" y="797" type="line"/>
      <point x="951" y="504" type="line"/>
      <point x="951" y="0" type="line"/>
      <point x="75" y="489" type="line"/>
    </contour>
  </outline>
</glyph>
<glyph name="A" format="1">
  <advance width="1550"/>
  <unicode hex="0041"/>
  <outline>
    <contour>
      <point x="782" y="1283" type="line"/>
      <point x="763" y="1283" type="line"/>
      <point x="686" y="576" type="line"/>
      <point x="864" y="576" type="line"/>
    </contour>
    <contour>
      <point x="668" y="366" type="line"/>
      <point x="613" y="0" type="line"/>
      <point x="27" y="0" type="line"/>
      <point x="319" y="1595" type="line"/>
      <point x="1226" y="1595" type="line"/>
      <point x="1523" y="0" type="line"/>
      <point x="936" y="0" type="line"/>
      <point x="882" y="366" type="line"/>
    </contour>
    <contour>
      <point x="775" y="1595" type="move" name="top"/>
    </contour>
    <contour>
      <point x="1395" y="10" type="move" name="ogonek"/>
    </contour>
  </outline>
</glyph>
<glyph name="B" format="1">
  <advance width="1514"/>
  <unicode hex="0042"/>
  <outline>
    <contour>
      <point x="696" y="951" type="line"/>
      <point x="869" y="951" type="line"/>
      <point x="869" y="1358" type="line"/>
      <point x="696" y="1358" type="line"/>
    </contour>
    <contour>
      <point x="696" y="235" type="line"/>
      <point x="869" y="235" type="line"/>
      <point x="869" y="770" type="line"/>
      <point x="696" y="770" type="line"/>
    </contour>
    <contour>
      <point x="1098" y="873" type="curve"/>
      <point x="1098" y="860" type="line"/>
      <point x="1408" y="824"/>
      <point x="1478" y="647"/>
      <point x="1478" y="460" type="curve" smooth="yes"/>
      <point x="1478" y="91"/>
      <point x="1324" y="0"/>
      <point x="935" y="0" type="curve" smooth="yes"/>
      <point x="92" y="0" type="line"/>
      <point x="92" y="1595" type="line"/>
      <point x="939" y="1595" type="line" smooth="yes"/>
      <point x="1199" y="1595"/>
      <point x="1437" y="1551"/>
      <point x="1437" y="1219" type="curve" smooth="yes"/>
      <point x="1437" y="1019"/>
      <point x="1363" y="901"/>
    </contour>
  </outline>
</glyph>
<glyph name="G" format="1">
  <advance width="1540"/>
  <unicode hex="0047"/>
  <outline>
    <contour>
      <point x="901" y="124" type="line"/>
      <point x="839" y="23"/>
      <point x="724" y="-39"/>
      <point x="550" y="-39" type="curve" smooth="yes"/>
      <point x="294" y="-39"/>
      <point x="80" y="83"/>
      <point x="80" y="359" type="curve" smooth="yes"/>
      <point x="80" y="1228" type="line" smooth="yes"/>
      <point x="80" y="1602"/>
      <point x="469" y="1636"/>
      <point x="772" y="1636" type="curve" smooth="yes"/>
      <point x="1036" y="1636"/>
      <point x="1462" y="1593"/>
      <point x="1462" y="1227" type="curve" smooth="yes"/>
      <point x="1462" y="979" type="line"/>
      <point x="857" y="979" type="line"/>
      <point x="857" y="1358" type="line"/>
      <point x="684" y="1358" type="line"/>
      <point x="684" y="235" type="line"/>
      <point x="857" y="235" type="line"/>
      <point x="857" y="538" type="line"/>
      <point x="772" y="538" type="line"/>
      <point x="772" y="769" type="line"/>
      <point x="1462" y="769" type="line"/>
      <point x="1462" y="0" type="line"/>
      <point x="975" y="0" type="line"/>
    </contour>
    <contour>
      <point x="770" y="1595" type="move" name="top"/>
    </contour>
    <contour>
      <point x="770" y="0" type="move" name="bottom"/>
    </contour>
  </outline>
</glyph>
<glyph name="H" format="1">
  <advance width="1585"/>
  <unicode hex="0048"/>
  <outline>
    <contour>
      <point x="1493" y="1595" type="line"/>
      <point x="1493" y="0" type="line"/>
      <point x="889" y="0" type="line"/>
      <point x="889" y="688" type="line"/>
      <point x="696" y="688" type="line"/>
      <point x="696" y="0" type="line"/>
      <point x="92" y="0" type="line"/>
      <point x="92" y="1595" type="line"/>
      <point x="696" y="1595" type="line"/>
      <point x="696" y="908" type="line"/>
      <point x="889" y="908" type="line"/>
      <point x="889" y="1595" type="line"/>
    </contour>
    <contour>
      <point x="793" y="1595" type="move" name="top"/>
    </contour>
    <contour>
      <point x="793" y="798" type="move" name="center"/>
    </contour>
  </outline>
</glyph>
<glyph name="M" format="1">
  <advance width="1904"/>
  <unicode hex="004D"/>
  <outline>
    <contour>
      <point x="1324" y="958" type="line"/>
      <point x="1167" y="-1" type="line"/>
      <point x="740" y="-1" type="line"/>
      <point x="595" y="958" type="line"/>
      <point x="581" y="958" type="line"/>
      <point x="525" y="0" type="line"/>
      <point x="64" y="0" type="line"/>
      <point x="148" y="1595" type="line"/>
      <point x="818" y="1595" type="line"/>
      <point x="945" y="671" type="line"/>
      <point x="958" y="671" type="line"/>
      <point x="1085" y="1595" type="line"/>
      <point x="1756" y="1595" type="line"/>
      <point x="1840" y="0" type="line"/>
      <point x="1394" y="0" type="line"/>
      <point x="1338" y="958" type="line"/>
    </contour>
  </outline>
</glyph>
<glyph name="N" format="1">
  <advance width="1576"/>
  <unicode hex="004E"/>
  <outline>
    <contour>
      <point x="945" y="0" type="line"/>
      <point x="540" y="711" type="line"/>
      <point x="540" y="0" type="line"/>
      <point x="92" y="0" type="line"/>
      <point x="92" y="1595" type="line"/>
      <point x="609" y="1595" type="line"/>
      <point x="1040" y="834" type="line"/>
      <point x="1040" y="1595" type="line"/>
      <point x="1484" y="1595" type="line"/>
      <point x="1484" y="0" type="line"/>
    </contour>
    <contour>
      <point x="788" y="1595" type="move" name="top"/>
    </contour>
    <contour>
      <point x="788" y="0" type="move" name="bottom"/>
    </contour>
  </outline>
</glyph>
<glyph name="R" format="1">
  <advance width="1527"/>
  <unicode hex="0052"/>
  <outline>
    <contour>
      <point x="696" y="881" type="line"/>
      <point x="869" y="881" type="line"/>
      <point x="869" y="1358" type="line"/>
      <point x="696" y="1358" type="line"/>
    </contour>
    <contour>
      <point x="1099" y="792" type="curve"/>
      <point x="1100" y="786" type="line"/>
      <point x="1383" y="754"/>
      <point x="1475" y="609"/>
      <point x="1475" y="437" type="curve" smooth="yes"/>
      <point x="1475" y="0" type="line"/>
      <point x="869" y="0" type="line"/>
      <point x="869" y="649" type="line"/>
      <point x="696" y="649" type="line"/>
      <point x="696" y="0" type="line"/>
      <point x="92" y="0" type="line"/>
      <point x="92" y="1595" type="line"/>
      <point x="1005" y="1595" type="line" smooth="yes"/>
      <point x="1294" y="1595"/>
      <point x="1459" y="1502"/>
      <point x="1459" y="1190" type="curve" smooth="yes"/>
      <point x="1459" y="968"/>
      <point x="1396" y="821"/>
    </contour>
    <contour>
      <point x="764" y="1595" type="move" name="top"/>
    </contour>
    <contour>
      <point x="764" y="0" type="move" name="bottom"/>
    </contour>
  </outline>
</glyph>
<glyph name="S" format="1">
  <advance width="1451"/>
  <unicode hex="0053"/>
  <outline>
    <contour>
      <point x="632" y="1125" type="line"/>
      <point x="635" y="1123" type="line"/>
      <point x="635" y="1083"/>
      <point x="712" y="1074"/>
      <point x="757" y="1066" type="curve" smooth="yes"/>
      <point x="1067" y="1011"/>
      <point x="1413" y="954"/>
      <point x="1413" y="542" type="curve" smooth="yes"/>
      <point x="1413" y="82"/>
      <point x="1214" y="-39"/>
      <point x="735" y="-39" type="curve" smooth="yes"/>
      <point x="462" y="-39"/>
      <point x="100" y="-10"/>
      <point x="67" y="345" type="curve" smooth="yes"/>
      <point x="63" y="390"/>
      <point x="61" y="438"/>
      <point x="61" y="488" type="curve"/>
      <point x="634" y="488" type="line"/>
      <point x="634" y="235" type="line"/>
      <point x="807" y="235" type="line"/>
      <point x="807" y="485" type="line" smooth="yes"/>
      <point x="807" y="538"/>
      <point x="738" y="559"/>
      <point x="689" y="575" type="curve" smooth="yes"/>
      <point x="406" y="667"/>
      <point x="55" y="712"/>
      <point x="55" y="1111" type="curve" smooth="yes"/>
      <point x="55" y="1550"/>
      <point x="337" y="1635"/>
      <point x="705" y="1635" type="curve" smooth="yes"/>
      <point x="1089" y="1635"/>
      <point x="1340" y="1573"/>
      <point x="1341" y="1180" type="curve"/>
      <point x="805" y="1180" type="line"/>
      <point x="805" y="1358" type="line"/>
      <point x="632" y="1358" type="line"/>
    </contour>
    <contour>
      <point x="726" y="1595" type="move" name="top"/>
    </contour>
    <contour>
      <point x="726" y="0" type="move" name="bottom"/>
    </contour>
  </outline>
</glyph>
<glyph name="d" format="1">
  <advance width="1471"/>
  <unicode hex="0064"/>
  <outline>
    <contour>
      <point x="811" y="1105" type="line"/>
      <point x="644" y="1105" type="line"/>
      <point x="644" y="199" type="line"/>
      <point x="811" y="199" type="line"/>
    </contour>
    <contour>
      <point x="489" y="1327" type="curve" smooth="yes"/>
      <point x="639" y="1327"/>
      <point x="745" y="1292"/>
      <point x="812" y="1215" type="curve"/>
      <point x="812" y="1710" type="line"/>
      <point x="1383" y="1710" type="line"/>
      <point x="1383" y="0" type="line"/>
      <point x="863" y="0" type="line"/>
      <point x="826" y="114" type="line"/>
      <point x="764" y="26"/>
      <point x="637" y="-30"/>
      <point x="491" y="-30" type="curve" smooth="yes"/>
      <point x="213" y="-30"/>
      <point x="74" y="106"/>
      <point x="74" y="377" type="curve" smooth="yes"/>
      <point x="74" y="940" type="line" smooth="yes"/>
      <point x="74" y="1203"/>
      <point x="217" y="1327"/>
    </contour>
    <contour>
      <point x="736" y="650" type="move" name="center"/>
    </contour>
  </outline>
</glyph>
<glyph name="k" format="1">
  <advance width="1520"/>
  <unicode hex="006B"/>
  <outline>
    <contour>
      <point x="101" y="0" type="line"/>
      <point x="101" y="1710" type="line"/>
      <point x="672" y="1710" type="line"/>
      <point x="672" y="798" type="line"/>
      <point x="941" y="1300" type="line"/>
      <point x="1527" y="1300" type="line"/>
      <point x="1196" y="690" type="line"/>
      <point x="1534" y="0" type="line"/>
      <point x="954" y="0" type="line"/>
      <point x="715" y="575" type="line"/>
      <point x="672" y="478" type="line"/>
      <point x="672" y="0" type="line"/>
    </contour>
    <contour>
      <point x="760" y="0" type="move" name="bottom"/>
    </contour>
  </outline>
</glyph>
<glyph name="n" format="1">
  <advance width="1489"/>
  <unicode hex="006E"/>
  <outline>
    <contour>
      <point x="984" y="1327" type="curve" smooth="yes"/>
      <point x="1257" y="1326"/>
      <point x="1405" y="1195"/>
      <point x="1405" y="944" type="curve" smooth="yes"/>
      <point x="1405" y="0" type="line"/>
      <point x="834" y="0" type="line"/>
      <point x="834" y="1105" type="line"/>
      <point x="667" y="1105" type="line"/>
      <point x="667" y="0" type="line"/>
      <point x="96" y="0" type="line"/>
      <point x="96" y="1300" type="line"/>
      <point x="606" y="1300" type="line"/>
      <point x="643" y="1188" type="line"/>
      <point x="702" y="1271"/>
      <point x="834" y="1327"/>
    </contour>
    <contour>
      <point x="745" y="1300" type="move" name="top"/>
    </contour>
    <contour>
      <point x="745" y="0" type="move" name="bottom"/>
    </contour>
  </outline>
</glyph>
<glyph name="r" format="1">
  <advance width="981"/>
  <unicode hex="0072"/>
  <outline>
    <contour>
      <point x="100" y="0" type="line"/>
      <point x="101" y="1300" type="line"/>
      <point x="587" y="1300" type="line"/>
      <point x="628" y="1153" type="line"/>
      <point x="673" y="1260"/>
      <point x="802" y="1323"/>
      <point x="957" y="1327" type="curve"/>
      <point x="957" y="949" type="line"/>
      <point x="671" y="893" type="line"/>
      <point x="671" y="0" type="line"/>
    </contour>
    <contour>
      <point x="491" y="1300" type="move" name="top"/>
    </contour>
    <contour>
      <point x="491" y="0" type="move" name="bottom"/>
    </contour>
  </outline>
</glyph>
<glyph name="x" format="1">
  <advance width="1362"/>
  <unicode hex="0078"/>
  <outline>
    <contour>
      <point x="23" y="0" type="line"/>
      <point x="396" y="652" type="line"/>
      <point x="23" y="1300" type="line"/>
      <point x="595" y="1300" type="line"/>
      <point x="681" y="1049" type="line"/>
      <point x="768" y="1300" type="line"/>
      <point x="1339" y="1300" type="line"/>
      <point x="966" y="652" type="line"/>
      <point x="1339" y="0" type="line"/>
      <point x="772" y="0" type="line"/>
      <point x="681" y="258" type="line"/>
      <point x="590" y="0" type="line"/>
    </contour>
  </outline>
</glyph>
<glyph name="y" format="1">
  <advance width="1337"/>
  <unicode hex="0079"/>
  <outline>
    <contour>
      <point x="488" y="-411" type="curve" smooth="yes"/>
      <point x="742" y="-411"/>
      <point x="944" y="-324"/>
      <point x="1028" y="-3" type="curve"/>
      <point x="1338" y="1300" type="line"/>
      <point x="804" y="1300" type="line"/>
      <point x="700" y="376" type="line"/>
      <point x="692" y="376" type="line"/>
      <point x="522" y="1300" type="line"/>
      <point x="-5" y="1300" type="line"/>
      <point x="366" y="41" type="line" smooth="yes"/>
      <point x="372" y="21"/>
      <point x="375" y="4"/>
      <point x="375" y="-10" type="curve" smooth="yes"/>
      <point x="375" y="-59"/>
      <point x="342" y="-77"/>
      <point x="287" y="-77" type="curve" smooth="yes"/>
      <point x="231" y="-77"/>
      <point x="153" y="-58"/>
      <point x="65" y="-33" type="curve"/>
      <point x="22" y="-344" type="line"/>
      <point x="150" y="-381"/>
      <point x="370" y="-411"/>
    </contour>
    <contour>
      <point x="669" y="1300" type="move" name="top"/>
    </contour>
  </outline>
</glyph>
<glyph name="braceleft" format="1">
  <advance width="1132"/>
  <unicode hex="007B"/>
  <outline>
    <contour>
      <point x="1100" y="1925" type="curve"/>
      <point x="1100" y="1646" type="line"/>
      <point x="536" y="1646"/>
      <point x="890" y="1008"/>
      <point x="609" y="796" type="curve"/>
      <point x="890" y="612"/>
      <point x="536" y="-51"/>
      <point x="1101" y="-51" type="curve"/>
      <point x="1101" y="-330" type="line"/>
      <point x="561" y="-330"/>
      <point x="310" y="-166"/>
      <point x="273" y="366" type="curve"/>
      <point x="256" y="495"/>
      <point x="275" y="658"/>
      <point x="85" y="658" type="curve"/>
      <point x="85" y="937" type="line"/>
      <point x="273" y="937"/>
      <point x="256" y="1090"/>
      <point x="274" y="1228" type="curve" smooth="yes"/>
      <point x="344" y="1752"/>
      <point x="561" y="1925"/>
    </contour>
  </outline>
</glyph>
<glyph name="section" format="1">
  <advance width="1362"/>
  <unicode hex="00A7"/>
  <outline>
    <contour>
      <point x="717" y="748" type="line"/>
      <point x="717" y="971" type="line"/>
      <point x="648" y="971" type="line"/>
      <point x="648" y="748" type="line"/>
    </contour>
    <contour>
      <point x="265" y="1046" type="curve"/>
      <point x="165" y="1093"/>
      <point x="88" y="1179"/>
      <point x="88" y="1329" type="curve" smooth="yes"/>
      <point x="88" y="1727"/>
      <point x="364" y="1770"/>
      <point x="702" y="1770" type="curve" smooth="yes"/>
      <point x="964" y="1770"/>
      <point x="1283" y="1749"/>
      <point x="1283" y="1411" type="curve" smooth="yes"/>
      <point x="1283" y="1376"/>
      <point x="1282" y="1342"/>
      <point x="1282" y="1306" type="curve"/>
      <point x="730" y="1306" type="line"/>
      <point x="730" y="1497" type="line"/>
      <point x="657" y="1497" type="line"/>
      <point x="657" y="1248" type="line"/>
      <point x="675" y="1230"/>
      <point x="736" y="1233"/>
      <point x="776" y="1231" type="curve" smooth="yes"/>
      <point x="965" y="1223"/>
      <point x="1294" y="1212"/>
      <point x="1294" y="949" type="curve" smooth="yes"/>
      <point x="1294" y="820"/>
      <point x="1228" y="745"/>
      <point x="1142" y="705" type="curve" smooth="yes"/>
      <point x="1123" y="696"/>
      <point x="1100" y="685"/>
      <point x="1083" y="685" type="curve"/>
      <point x="1099" y="677"/>
      <point x="1118" y="672"/>
      <point x="1137" y="660" type="curve" smooth="yes"/>
      <point x="1217" y="612"/>
      <point x="1278" y="532"/>
      <point x="1278" y="401" type="curve" smooth="yes"/>
      <point x="1278" y="3"/>
      <point x="1002" y="-40"/>
      <point x="664" y="-40" type="curve" smooth="yes"/>
      <point x="401" y="-40"/>
      <point x="85" y="-18"/>
      <point x="85" y="321" type="curve" smooth="yes"/>
      <point x="85" y="356"/>
      <point x="86" y="390"/>
      <point x="86" y="426" type="curve"/>
      <point x="637" y="426" type="line"/>
      <point x="637" y="235" type="line"/>
      <point x="710" y="235" type="line"/>
      <point x="710" y="487" type="line"/>
      <point x="455" y="487" type="line" smooth="yes"/>
      <point x="231" y="487"/>
      <point x="73" y="555"/>
      <point x="73" y="783" type="curve" smooth="yes"/>
      <point x="73" y="919"/>
      <point x="150" y="1003"/>
      <point x="248" y="1039" type="curve" smooth="yes"/>
      <point x="258" y="1043"/>
      <point x="264" y="1045"/>
    </contour>
  </outline>
</glyph>
<glyph name="copyright" format="1">
  <advance width="1861"/>
  <unicode hex="00A9"/>
  <outline>
    <contour>
      <point x="835" y="432" type="line"/>
      <point x="1034" y="432" type="line"/>
      <point x="1034" y="749" type="line"/>
      <point x="1311" y="749" type="line"/>
      <point x="1311" y="542" type="line" smooth="yes"/>
      <point x="1311" y="312"/>
      <point x="1161" y="272"/>
      <point x="916" y="272" type="curve" smooth="yes"/>
      <point x="701" y="272"/>
      <point x="555" y="315"/>
      <point x="555" y="547" type="curve" smooth="yes"/>
      <point x="555" y="1107" type="line" smooth="yes"/>
      <point x="555" y="1334"/>
      <point x="687" y="1381"/>
      <point x="916" y="1381" type="curve" smooth="yes"/>
      <point x="1113" y="1381"/>
      <point x="1311" y="1366"/>
      <point x="1311" y="1111" type="curve" smooth="yes"/>
      <point x="1311" y="913" type="line"/>
      <point x="1034" y="913" type="line"/>
      <point x="1034" y="1222" type="line"/>
      <point x="835" y="1222" type="line"/>
    </contour>
    <contour>
      <point x="323" y="1114" type="curve" smooth="yes"/>
      <point x="323" y="535" type="line" smooth="yes"/>
      <point x="323" y="169"/>
      <point x="523" y="68"/>
      <point x="932" y="68" type="curve" smooth="yes"/>
      <point x="1300" y="68"/>
      <point x="1541" y="156"/>
      <point x="1541" y="482" type="curve" smooth="yes"/>
      <point x="1541" y="1165" type="line" smooth="yes"/>
      <point x="1541" y="1500"/>
      <point x="1275" y="1573"/>
      <point x="932" y="1573" type="curve" smooth="yes"/>
      <point x="520" y="1573"/>
      <point x="323" y="1471"/>
    </contour>
    <contour>
      <point x="932" y="-101" type="curve" smooth="yes"/>
      <point x="421" y="-101"/>
      <point x="84" y="42"/>
      <point x="84" y="539" type="curve" smooth="yes"/>
      <point x="84" y="1116" type="line" smooth="yes"/>
      <point x="84" y="1638"/>
      <point x="490" y="1749"/>
      <point x="932" y="1749" type="curve" smooth="yes"/>
      <point x="1441" y="1749"/>
      <point x="1780" y="1610"/>
      <point x="1780" y="1116" type="curve" smooth="yes"/>
      <point x="1780" y="539" type="line" smooth="yes"/>
      <point x="1780" y="14"/>
      <point x="1377" y="-101"/>
    </contour>
  </outline>
</glyph>
<glyph name="uni00B2" format="1">
  <advance width="1090"/>
  <unicode hex="00B2"/>
  <outline>
    <contour>
      <point x="189" y="836" type="line"/>
      <point x="189" y="850"/>
      <point x="188" y="864"/>
      <point x="188" y="878" type="curve" smooth="yes"/>
      <point x="188" y="1148"/>
      <point x="367" y="1209"/>
      <point x="610" y="1209" type="curve" smooth="yes"/>
      <point x="872" y="1209"/>
      <point x="1026" y="1142"/>
      <point x="1026" y="876" type="curve" smooth="yes"/>
      <point x="1026" y="634"/>
      <point x="868" y="548"/>
      <point x="703" y="474" type="curve" smooth="yes"/>
      <point x="633" y="443"/>
      <point x="553" y="404"/>
      <point x="553" y="332" type="curve"/>
      <point x="986" y="332" type="line"/>
      <point x="986" y="134" type="line"/>
      <point x="189" y="134" type="line"/>
      <point x="189" y="313" type="line" smooth="yes"/>
      <point x="189" y="575"/>
      <point x="323" y="690"/>
      <point x="517" y="768" type="curve" smooth="yes"/>
      <point x="579" y="793"/>
      <point x="653" y="823"/>
      <point x="653" y="877" type="curve" smooth="yes"/>
      <point x="653" y="1030" type="line"/>
      <point x="553" y="1030" type="line"/>
      <point x="553" y="836" type="line"/>
    </contour>
  </outline>
</glyph>
<glyph name="onehalf" format="1">
  <advance width="2580"/>
  <unicode hex="00BD"/>
  <outline>
    <contour>
      <point x="766" y="0" type="line"/>
      <point x="1118" y="1595" type="line"/>
      <point x="1552" y="1595" type="line"/>
      <point x="1201" y="0" type="line"/>
    </contour>
    <contour>
      <point x="31" y="1415" type="line"/>
      <point x="121" y="1415"/>
      <point x="201" y="1435"/>
      <point x="258" y="1470" type="curve"/>
      <point x="570" y="1470" type="line"/>
      <point x="570" y="430" type="line"/>
      <point x="175" y="430" type="line"/>
      <point x="175" y="1271" type="line"/>
      <point x="31" y="1271" type="line"/>
    </contour>
    <contour>
      <point x="1685" y="836" type="line"/>
      <point x="1685" y="850"/>
      <point x="1684" y="864"/>
      <point x="1684" y="878" type="curve" smooth="yes"/>
      <point x="1684" y="1148"/>
      <point x="1863" y="1209"/>
      <point x="2106" y="1209" type="curve" smooth="yes"/>
      <point x="2368" y="1209"/>
      <point x="2522" y="1142"/>
      <point x="2522" y="876" type="curve" smooth="yes"/>
      <point x="2522" y="634"/>
      <point x="2364" y="548"/>
      <point x="2199" y="474" type="curve" smooth="yes"/>
      <point x="2129" y="443"/>
      <point x="2049" y="404"/>
      <point x="2049" y="332" type="curve"/>
      <point x="2482" y="332" type="line"/>
      <point x="2482" y="134" type="line"/>
      <point x="1685" y="134" type="line"/>
      <point x="1685" y="313" type="line" smooth="yes"/>
      <point x="1685" y="575"/>
      <point x="1819" y="690"/>
      <point x="2013" y="768" type="curve" smooth="yes"/>
      <point x="2075" y="793"/>
      <point x="2149" y="823"/>
      <point x="2149" y="877" type="curve" smooth="yes"/>
      <point x="2149" y="1030" type="line"/>
      <point x="2049" y="1030" type="line"/>
      <point x="2049" y="836" type="line"/>
    </contour>
  </outline>
</glyph>
<glyph name="multiply" format="1">
  <advance width="1310"/>
  <unicode hex="00D7"/>
  <outline>
    <contour>
      <point x="1266" y="924" type="line"/>
      <point x="1008" y="649" type="line"/>
      <point x="1266" y="375" type="line"/>
      <point x="917" y="4" type="line"/>
      <point x="660" y="279" type="line"/>
      <point x="401" y="4" type="line"/>
      <point x="53" y="375" type="line"/>
      <point x="311" y="649" type="line"/>
      <point x="53" y="924" type="line"/>
      <point x="401" y="1294" type="line"/>
      <point x="660" y="1020" type="line"/>
      <point x="917" y="1294" type="line"/>
    </contour>
  </outline>
</glyph>
<glyph name="thorn" format="1">
  <advance width="1430"/>
  <unicode hex="00FE"/>
  <outline>
    <contour>
      <point x="674" y="231" type="line"/>
      <point x="788" y="231" type="line"/>
      <point x="788" y="1069" type="line"/>
      <point x="674" y="1069" type="line"/>
    </contour>
    <contour>
      <point x="675" y="1227" type="line"/>
      <point x="714" y="1307"/>
      <point x="820" y="1323"/>
      <point x="948" y="1323" type="curve" smooth="yes"/>
      <point x="1200" y="1323"/>
      <point x="1350" y="1231"/>
      <point x="1360" y="995" type="curve" smooth="yes"/>
      <point x="1361" y="964"/>
      <point x="1362" y="935"/>
      <point x="1362" y="908" type="curve" smooth="yes"/>
      <point x="1362" y="390" type="line" smooth="yes"/>
      <point x="1362" y="229"/>
      <point x="1334" y="116"/>
      <point x="1239" y="48" type="curve" smooth="yes"/>
      <point x="1170" y="-2"/>
      <point x="1073" y="-24"/>
      <point x="948" y="-24" type="curve" smooth="yes"/>
      <point x="838" y="-24"/>
      <point x="746" y="-13"/>
      <point x="701" y="44" type="curve" smooth="yes"/>
      <point x="692" y="56"/>
      <point x="683" y="67"/>
      <point x="675" y="78" type="curve"/>
      <point x="675" y="-409" type="line"/>
      <point x="104" y="-409" type="line"/>
      <point x="104" y="1602" type="line"/>
      <point x="675" y="1602" type="line"/>
    </contour>
  </outline>
</glyph>
<glyph name="dotlessi" format="1">
  <advance width="744"/>
  <unicode hex="0131"/>
  <outline>
    <contour>
      <point x="669" y="0" type="line"/>
      <point x="100" y="0" type="line"/>
      <point x="100" y="1298" type="line"/>
      <point x="669" y="1298" type="line"/>
    </contour>
    <contour>
      <point x="372" y="1300" type="move" name="top"/>
    </contour>
    <contour>
      <point x="670" y="10" type="move" name="ogonek"/>
    </contour>
  </outline>
</glyph>
<glyph name="breve" format="1">
  <advance width="1062"/>
  <unicode hex="02D8"/>
  <outline>
    <contour>
      <point x="537" y="1398" type="curve" smooth="yes"/>
      <point x="155" y="1398"/>
      <point x="75" y="1596"/>
      <point x="75" y="1879" type="curve"/>
      <point x="372" y="1879" type="line"/>
      <point x="372" y="1772"/>
      <point x="380" y="1701"/>
      <point x="537" y="1701" type="curve" smooth="yes"/>
      <point x="694" y="1701"/>
      <point x="702" y="1772"/>
      <point x="702" y="1879" type="curve"/>
      <point x="999" y="1879" type="line"/>
      <point x="999" y="1596"/>
      <point x="919" y="1398"/>
    </contour>
    <contour>
      <point x="537" y="1300" type="move" name="_top"/>
    </contour>
  </outline>
</glyph>
<glyph name="dotaccent" format="1">
  <advance width="670"/>
  <unicode hex="02D9"/>
  <outline>
    <contour>
      <point x="591" y="0" type="line"/>
      <point x="84" y="0" type="line"/>
      <point x="84" y="467" type="line"/>
      <point x="591" y="467" type="line"/>
    </contour>
    <contour>
      <point x="337.5" y="1300" type="move" name="_top"/>
    </contour>
  </outline>
</glyph>
<glyph name="uni0311" format="1">
  <advance width="1062"/>
  <unicode hex="0311"/>
  <outline>
    <contour>
      <point x="537" y="1879" type="curve" smooth="yes"/>
      <point x="919" y="1879"/>
      <point x="999" y="1681"/>
      <point x="999" y="1398" type="curve"/>
      <point x="702" y="1398" type="line"/>
      <point x="702" y="1505"/>
      <point x="694" y="1576"/>
      <point x="537" y="1576" type="curve" smooth="yes"/>
      <point x="380" y="1576"/>
      <point x="372" y="1505"/>
      <point x="372" y="1398" type="curve"/>
      <point x="75" y="1398" type="line"/>
      <point x="75" y="1681"/>
      <point x="155" y="1879"/>
    </contour>
  </outline>
</glyph>
<glyph name="endash" format="1">
  <advance width="1005"/>
  <unicode hex="2013"/>
  <outline>
    <contour>
      <point x="920" y="897" type="line"/>
      <point x="920" y="461" type="line"/>
      <point x="87" y="461" type="line"/>
      <point x="87" y="897" type="line"/>
    </contour>
  </outline>
</glyph>
<glyph name="emdash" format="1">
  <advance width="1857"/>
  <unicode hex="2014"/>
  <outline>
    <contour>
      <point x="1772" y="897" type="line"/>
      <point x="1772" y="461" type="line"/>
      <point x="87" y="461" type="line"/>
      <point x="87" y="897" type="line"/>
    </contour>
  </outline>
</glyph>
<glyph name="quotedblright" format="1">
  <advance width="1327"/>
  <unicode hex="201D"/>
  <outline>
    <contour>
      <point x="757" y="1430" type="curve" smooth="yes"/>
      <point x="757" y="1563"/>
      <point x="859" y="1630"/>
      <point x="961" y="1630" type="curve" smooth="yes"/>
      <point x="1105" y="1630"/>
      <point x="1171" y="1519"/>
      <point x="1171" y="1390" type="curve" smooth="yes"/>
      <point x="1171" y="1206"/>
      <point x="1045" y="987"/>
      <point x="824" y="987" type="curve" smooth="yes"/>
      <point x="810" y="987"/>
      <point x="795" y="988"/>
      <point x="780" y="990" type="curve"/>
      <point x="780" y="1099" type="line"/>
      <point x="860" y="1100"/>
      <point x="930" y="1144"/>
      <point x="936" y="1221" type="curve"/>
      <point x="843" y="1231"/>
      <point x="757" y="1301"/>
    </contour>
    <contour>
      <point x="254" y="1430" type="curve" smooth="yes"/>
      <point x="254" y="1563"/>
      <point x="356" y="1630"/>
      <point x="458" y="1630" type="curve" smooth="yes"/>
      <point x="602" y="1630"/>
      <point x="668" y="1519"/>
      <point x="668" y="1390" type="curve" smooth="yes"/>
      <point x="668" y="1206"/>
      <point x="542" y="987"/>
      <point x="321" y="987" type="curve" smooth="yes"/>
      <point x="307" y="987"/>
      <point x="292" y="988"/>
      <point x="277" y="990" type="curve"/>
      <point x="277" y="1099" type="line"/>
      <point x="357" y="1100"/>
      <point x="427" y="1144"/>
      <point x="433" y="1221" type="curve"/>
      <point x="340" y="1231"/>
      <point x="254" y="1301"/>
    </contour>
  </outline>
</glyph>
<glyph name="uni2074" format="1">
  <advance width="1298"/>
  <unicode hex="2074"/>
  <outline>
    <contour>
      <point x="1096" y="130" type="line"/>
      <point x="737" y="130" type="line"/>
      <point x="737" y="291" type="line"/>
      <point x="221" y="291" type="line"/>
      <point x="221" y="571" type="line"/>
      <point x="391" y="1172" type="line"/>
      <point x="776" y="1172" type="line"/>
      <point x="607" y="571" type="line"/>
      <point x="607" y="535" type="line"/>
      <point x="737" y="535" type="line"/>
      <point x="737" y="760" type="line"/>
      <point x="1096" y="760" type="line"/>
    </contour>
  </outline>
</glyph>
